<svg xmlns="http://www.w3.org/2000/svg" width="116.628" height="88.063"
    viewBox="45.588 2.963 116.628 88.063">
    <path
        d="M72.788 39.468c-3.638.183-7.275.398-10.916.525-.964.034-1.294.288-1.447 1.311-.598 4.012-3.746 6.538-7.77 6.407-3.556-.116-6.686-2.991-7.023-6.45-.388-3.98 1.857-7.29 5.598-8.255 3.65-.941 7.435 1 8.801 4.665.39 1.045.832 1.405 1.936 1.328 5.61-.394 11.223-.752 16.84-1.035 1.192-.06 1.754-.348 1.778-1.636.013-.756.237-1.631.672-2.23 1.052-1.449.443-2.31-.701-3.278-1.801-1.524-3.528-3.14-5.223-4.783-1.008-.975-1.741-1.317-3.183-.393-3.147 2.019-7.34.696-9.067-2.554-1.785-3.358-.477-7.527 2.884-9.19 3.331-1.647 7.398-.299 8.985 3.036.97 2.037 1.007 4.13-.174 6.092-.358.595-.435.9.108 1.338a57.448 57.448 0 016.589 6.25c.746.829 1.484 1.245 2.385.196.191-.222.52-.323.735-.53.727-.697 2.264-.34 2.448-1.56.148-.977-.19-2.032-.342-3.05-.115-.778-.326-1.545-.406-2.327-.213-2.092-.526-3.664-3.311-4.1-2.832-.442-4.37-3.313-4.248-6.222.115-2.782 2.093-5.083 4.862-5.91 2.447-.732 5.754.902 6.94 2.809 1.474 2.372 1.278 5.475-.576 7.623-.313.363-.663.84-1.078.948-2.393.616-2.098 2.252-1.728 4.048.366 1.774.862 3.542.716 5.39-.06.755.337 1.202 1.056 1.165 2.18-.11 3.966.85 5.695 1.99.317.209.633.46.978.17 1.25-1.058 2.515-2.103 3.692-3.238.507-.489-.124-1.012-.296-1.487-1.443-3.978.51-8.075 4.49-9.344.644-.206 1.574-.034 1.368-1.215-.16-.92-.022-1.8-1.384-2.165-3.386-.908-5.021-4.14-3.868-7.207.846-2.25 3.272-3.825 5.575-3.62 2.51.225 4.475 2.02 5.006 4.578.472 2.269-.679 4.672-2.813 5.796-.818.43-1.695.54-1.501 1.98.177 1.315.737 1.614 1.837 1.962 2.961.937 4.703 3.108 4.82 6.176.076 1.981 1.51 1.517 2.49 1.916 1.006.409 1.305-.292 1.691-1.073 1.323-2.672 3.537-4.195 6.517-4.188 1.313.004 1.544-.71 1.709-1.566.192-1 1.123-1.98-.383-3.005-2.452-1.671-3.02-4.446-1.776-6.915 1.207-2.396 3.896-3.569 6.44-2.808 2.508.75 4.153 3.109 3.95 5.661-.224 2.793-2.278 4.969-5.254 5.08-2.021.075-1.657 1.617-2.179 2.664-.643 1.29.58 1.707 1.197 1.997 2.083.98 3.001 2.71 3.51 4.756.19.765.078 1.755 1.212 1.623 1.171-.136 2.565.978 3.494-.83 1.107-2.15 3.203-3.05 5.32-2.646 2.052.393 3.63 2.012 4.043 4.189.078.41.196.903.047 1.251-.644 1.496.51 1.842 1.397 2.448 1.04.71 1.381-.233 1.893-.716 3.135-2.96 7.924-3.144 11.316-.414 3.241 2.61 4.026 7.597 1.763 11.204-2.212 3.525-6.895 4.91-10.74 3.175-3.816-1.722-5.74-6.095-4.557-10.217.197-.687 1.108-1.487-.142-2.173-.978-.537-1.626-.95-2.777.088-2.694 2.427-6.892 1.111-7.833-2.414-.41-1.537-1.187-1.736-2.523-1.85-1.347-.114-1.832.353-2.313 1.552-1.522 3.796-5.862 5.503-9.673 3.783-1.102-.497-1.56-.262-2.187.58a263.5 263.5 0 01-6 7.79c-.592.734-.618 1.227.076 1.808.138.115.306.257.347.416.882 3.407 3.29 2.986 5.81 2.35a10.78 10.78 0 011.975-.307c1.366-.082 2.269-.418 2.653-2.047.49-2.082 2.214-3.158 4.3-3.39 2.042-.228 3.693.637 4.813 2.35 1.173 1.79 1.238 3.708.018 5.467-.51.736-.256.896.149 1.518 1.51 2.32 3.074 3.695 6.202 2.68 2.049-.665 3.999.605 5.482 2.2.44.474.762 1.233 1.548.572.713-.599 2.041-.666 1.736-2.18-.42-2.083.233-3.858 1.975-5.124a4.945 4.945 0 016.615.707c1.694 1.897 1.654 4.933-.09 6.815-1.722 1.86-4.588 2.186-6.59.53-.935-.772-1.576-.929-2.648-.341-.895.49-1.103.869-.885 1.92.85 4.104-1.434 7.565-5.444 8.51-3.356.792-7.109-1.446-8.063-4.919-.646-2.352-.332-4.613 1.377-6.468.691-.751.717-1.285.029-1.98-.382-.386-.705-.838-1.009-1.29-.796-1.183-1.499-1.83-3.198-1.07-2.299 1.03-4.976-.236-6.081-2.607-.498-1.068-1.064-1.305-2.092-1.058-.646.155-1.32.196-1.98.294-4.682.69-4.67.693-5.739 5.175-.117.49-.09.802.344 1.073 1.082.675 2.153 1.366 3.227 2.052.783.5 1.229-.224 1.767-.518 2.152-1.175 4.243-1.03 6.137.444 1.7 1.321 2.46 3.138 2.007 5.315-.494 2.376-1.96 3.847-4.33 4.373-3.89.864-7.47-2.866-6.313-6.74.42-1.406.208-2.139-1.057-2.716-.492-.224-.945-.553-1.376-.885-.814-.628-1.392-.73-2.292.118-2.876 2.71-7.168 2.986-10.223.849-3.28-2.295-4.438-6.125-2.972-9.97.271-.712.654-1.39-.325-1.809-.918-.391-1.444-1.867-2.931-.686-1.517 1.205-3.091 2.535-5.257 2.529-.532-.002-.669.435-.664.905.006.547.052 1.097.005 1.639-.123 1.432.134 2.305 1.808 2.898 3.729 1.32 5.44 5.516 4.138 9.306-.228.663-.686 1.248.15 1.92.836.672 1.287.084 1.9-.265 1.975-1.126 4.383-.743 5.803.886 1.44 1.651 1.567 3.934.32 5.72-1.215 1.738-3.543 2.414-5.503 1.599-2.047-.852-3.16-2.923-2.705-5.2.16-.801.35-1.437-.515-2.02-1.019-.686-1.258.324-1.761.676-1.11.776-2.25 1.449-3.633 1.547-.885.062-1.392.306-1.521 1.364-.117.954.149 1.346.949 1.752 3.555 1.801 4.82 4.836 3.638 8.199-1.027 2.922-5.024 5.31-8.503 3.789-1.085-.474-1.379.23-1.864.839-.507.635-.61 1.09-.018 1.861 1.502 1.959 1.366 4.19-.138 5.81-1.445 1.555-3.631 1.87-5.485.792-1.852-1.078-2.67-3.188-2.001-5.16.759-2.236 2.561-3.367 5.138-2.956 1.242.198 1.36-.742 1.88-1.32.564-.63.302-1.114-.144-1.74-3.333-4.675-1.242-9.693 4.466-10.717.759-.136 1.067-.428 1.085-1.146.017-.654.19-1.28-.757-1.56-2.076-.616-3.616-1.94-4.573-3.9-.168-.344-.312-.681-.783-.546-.421.121-.782.297-.817.835-.028.42-.106.843-.218 1.249-.67 2.426-2.87 4.057-5.261 3.92-2.403-.139-4.455-2.008-4.87-4.436-.382-2.23 1.05-4.685 3.237-5.548 2.312-.914 4.783-.114 6.235 1.981.306.442.355 1.328 1.242.99.784-.3.453-1.035.472-1.598.135-3.842 2.447-6.63 6.273-7.381.961-.189 1.399-.533 1.293-1.535-.07-.662-.059-1.337-.023-2.002.05-.915-.194-1.445-1.237-1.608-1.402-.218-2.65-.915-3.66-1.911-.677-.668-1.282-.661-1.861-.029-.573.624-1.823.686-1.372 2.17.974 3.203-.141 6.23-2.499 7.436-3.457 1.77-6.003 1.28-8.484-1.768-.54-.665-.908-.747-1.636-.396a60.011 60.011 0 01-4.31 1.86c-.928.362-.607.966-.522 1.63a5.765 5.765 0 01-3.58 6.13c-2.349.954-5.207.182-6.705-1.81-1.623-2.16-1.632-4.99-.022-7.105 2.052-2.694 6.337-3.021 8.656-.483.863.944 1.51.935 2.464.453.54-.272 1.11-.487 1.68-.695 1.739-.635 3.012-1.143 3.07-3.697.106-4.548 5.375-7.522 9.987-4.179 1.265.917 1.76.212 2.61-.3.955-.574.711-1.152.504-2.09-.465-2.103-1.534-2.569-3.537-2.244-1.596.259-3.267.052-4.904.052v.231zm27.562-10.62c-.486.016-4.243 3.452-4.175 3.742.08.342.28.66.45.975 1.351 2.503 1.537 5.096.4 7.693-.386.885-.234 1.363.55 1.723.887.406 1.548 1.767 2.817.612 2.784-2.534 5.941-2.77 9.291-1.334.659.282 1.046.328 1.516-.3 2.111-2.81 4.254-5.6 6.42-8.368.462-.59.451-.99-.038-1.557-1.064-1.234-1.548-2.73-1.645-4.342-.103-1.7-1.607-1.03-2.448-1.474-.849-.448-1.207-.031-1.631.74-2.357 4.29-6.796 5.274-10.758 2.456-.288-.205-.565-.426-.75-.566z"
        fill="#fff" fill-rule="evenodd"/>
</svg>